# xmcd CD database file
#
# Track frame offsets:
#	150
#	17142
#	29117
#	42835
#	57510
#	72655
#	86325
#	100242
#	113215
#	126622
#	143915
#	158445
#	173342
#	188160
#
# Disc length: 2667 seconds
#
# Revision: 0
# Processed by: cddbd v1.5.1PL2 Copyright (c) Steve Scherf et al.
# Submitted via: CDex 1.51
#
DISCID=c20a690e
DTITLE=Twin Piano - Oldish Love Song Vol.06
DYEAR=1900
DGENRE=・シェセェコ
TTITLE0=Morning Has Broken
TTITLE1=A Dear John Letter
TTITLE2=The Bird and Bee
TTITLE3=And I love you so
TTITLE4=Last walts
TTITLE5=Love me with your heart
TTITLE6=500 miles away from home
TTITLE7=Buttons and bows
TTITLE8=Sealed with A kiss
TTITLE9=Where have all the flower gone
TTITLE10=You light up my life
TTITLE11=Help me nake it through the night
TTITLE12=Sad movies
TTITLE13=Just walking in the rain
EXTD=
EXTT0=
EXTT1=
EXTT2=
EXTT3=
EXTT4=
EXTT5=
EXTT6=
EXTT7=
EXTT8=
EXTT9=
EXTT10=
EXTT11=
EXTT12=
EXTT13=
PLAYORDER=
